<?xml version="1.0" encoding="utf-8"?>
<!-- Generator: Adobe Illustrator 19.1.1, SVG Export Plug-In . SVG Version: 6.00 Build 0)  -->
<svg version="1.1" id="Layer_1" xmlns="http://www.w3.org/2000/svg" xmlns:xlink="http://www.w3.org/1999/xlink" x="0px" y="0px"
	 viewBox="0 0 1366 768" style="enable-background:new 0 0 1366 768;" xml:space="preserve">
<style type="text/css">
	.st0{fill-rule:evenodd;clip-rule:evenodd;fill:#D1D3D4;}
	.st1{fill-rule:evenodd;clip-rule:evenodd;fill:#A7A9AC;}
	.st2{fill-rule:evenodd;clip-rule:evenodd;fill:#808285;}
	.st3{fill-rule:evenodd;clip-rule:evenodd;fill:url(#SVGID_1_);}
	.st4{fill-rule:evenodd;clip-rule:evenodd;fill:url(#SVGID_2_);}
	.st5{fill-rule:evenodd;clip-rule:evenodd;fill:url(#SVGID_3_);}
	.st6{fill-rule:evenodd;clip-rule:evenodd;fill:url(#SVGID_4_);}
	.st7{fill-rule:evenodd;clip-rule:evenodd;fill:url(#SVGID_5_);}
</style>
<path class="st0" d="M1201.4,270.7c21.4-17.8,33-35.2,34.1-51.7H926.8c-6.4,26.2-15.9,49.3-28.7,68.8h162.1c3-6.2,6-10.9,8.8-14.1
	c2.1-3,6.6-3.9,13.7-3H1201.4L1201.4,270.7z"/>
<path class="st0" d="M993.2,329.8l37.3-6.9l17.8-19.5H888.9c-34.7,37.1-37.3,63-8.1,77.8c3.2,0.4,4.1-2.1,2.8-7.7
	c-2.1-7.1-1.3-15,3-23.2c3-6.6,6.6-11.4,10.9-14.8h61.7l-61.7,70.7c-7.5,4.5-16.7,6.4-27,5.1h-70.7l-19.9,17.6h88.7
	c18.9,0.9,33.4-3.2,43.1-12.4l60.7-70.3C980,335.6,987,330.2,993.2,329.8L993.2,329.8z"/>
<path class="st0" d="M700,263.4h107.8c-7.5,25.1-48.2,73.1-121.8,143.6c-68.8,68.2-111.5,124.1-128.6,168.5h81l11.4-20.8l0.9-0.6
	v-0.6l1.1-2.4c28.1-46.7,66.2-92.4,114-135.5c92.6-89.4,139.1-155.2,139.6-198.5h-230l-56.8,98.6h44.8L700,263.4L700,263.4z"/>
<path class="st0" d="M568.6,219.4c-38.2-14.4-81,0.6-129.1,45.7c-17.4,16.5-33.2,35.2-48.7,56.4c-12.4,16.3-21.7,30.2-27,41.8
	l-13.1,26.6c-9.9,21.4-17.8,42.7-23.2,63.5c-17.6,64.5-8.1,105.3,28.3,122.2c37.1,17.1,80,3.9,128.6-39.2c29.4-27,53.6-56,73.1-87.9
	l13.5-22.5c17.8-34.5,29.6-70.5,34.9-108.5l0.6-3C613.8,262.7,600.9,231.2,568.6,219.4L568.6,219.4z M426.9,385.3
	c12.9-25.3,29.8-52.1,50.2-80.2c31.9-45.2,55.9-64.5,72-58.7c24,9,6.2,65.6-53.4,170c-15,25.1-33.4,51.7-55.1,79.7
	c-32.8,41.6-55.7,59.4-68,53c-13.1-6.9-9.4-33.9,11.1-80.4L426.9,385.3L426.9,385.3z"/>
<path class="st0" d="M319.5,218.6c-38.2-14.6-81,0.9-128.8,46.1c-17.4,15.9-33.7,34.7-49.1,56c-12.4,16.3-21.4,30.2-27,42
	l-12.9,26.2c-10.1,21.7-18,42.9-23.4,63.7c-17.6,64.3-7.9,105.3,28.7,122.2c36.7,16.9,79.5,3.9,128.2-39.4
	c29.4-26.8,54-56,73.5-87.5l13.1-22.9c17.8-34.3,29.6-70.3,35.2-107.8l0.4-3.4C364.5,261.9,351.6,230.4,319.5,218.6L319.5,218.6z
	 M123.3,548.3c-12.9-6.9-9.2-33.9,11.4-80.4l42.9-83.6c13.1-25.1,29.8-51.7,50.2-79.7c32.2-45,56-64.7,72-59
	c24.2,9,6.4,65.6-53.2,170c-15,25.1-33.4,51.7-54.9,79.7C158.7,537.1,135.8,554.7,123.3,548.3L123.3,548.3z"/>
<path class="st1" d="M1200.3,267.4c21.4-18,33-35.2,34.1-51.9H925.7c-6.2,26.4-15.6,49.3-28.7,69h162.1c3-6.4,6.2-10.9,8.8-14.1
	c2.1-3,6.6-4.1,13.7-3H1200.3L1200.3,267.4z"/>
<path class="st1" d="M1047.3,300H888c-34.7,37.3-37.5,63.2-8.1,78c3,0.2,3.9-2.1,2.6-7.9c-2.1-6.9-1.1-14.8,3-22.9
	c3.2-6.6,6.9-11.6,10.9-14.8h61.7l-61.7,70.7c-7.5,4.5-16.5,6.4-26.8,5.1h-70.7l-20.2,17.6h88.7c19.1,0.9,33.4-3.4,43.3-12.4
	l60.5-70.5c7.7-10.5,14.8-15.9,21.2-16.3l37.1-6.9L1047.3,300L1047.3,300z"/>
<path class="st1" d="M698.9,260.1h108c-7.7,25.1-48.4,73.1-122,143.6c-68.6,68-111.3,123.9-128.6,168.5h81l11.6-21l0.6-0.4v-0.6
	l1.3-2.4c27.9-46.9,66.2-92.4,114-135.7c92.4-89.2,139.1-155,139.3-198.3H674.5l-57,98.6h44.8L698.9,260.1L698.9,260.1z"/>
<path class="st1" d="M567.7,216.2c-38.2-14.6-81.2,0.6-129.3,45.7c-17.1,16.3-33.2,35.2-48.7,56.4c-12.4,16.3-21.4,30.2-27,41.6
	l-12.9,26.6c-10.1,21.7-18,42.7-23.4,63.7c-17.6,64.3-8.1,105.3,28.3,122.2c37.1,16.9,80,4.1,128.6-39.4
	c29.4-26.8,53.6-55.9,73.3-87.7l13.3-22.7c17.8-34.3,29.6-70.3,35.2-108.3l0.4-3C612.7,259.5,600.1,228,567.7,216.2L567.7,216.2z
	 M425.8,381.9c12.9-25.1,29.8-51.9,50.2-80.2c32.2-45,56-64.3,72-58.5c24.2,9,6.2,65.6-53.2,170c-15.2,25.1-33.7,51.7-55.1,79.7
	c-33,41.4-55.7,59.4-68.2,52.9c-12.9-6.9-9.2-33.9,11.1-80.4L425.8,381.9L425.8,381.9z"/>
<path class="st1" d="M318.4,215.3c-38.2-14.6-81,0.9-128.8,45.9c-17.4,16.1-33.7,34.9-49.1,56c-12.4,16.5-21.4,30.2-26.8,42.2
	l-13.1,26.2c-10.1,21.4-18,42.9-23.4,63.7c-17.6,64.3-7.9,105.3,28.7,122.2c36.7,16.9,79.7,3.9,128.4-39.4
	c29.4-26.8,53.8-56,73.5-87.7l12.9-22.7c17.8-34.5,29.6-70.5,35.2-108l0.6-3.2C363.4,258.7,350.6,227.1,318.4,215.3L318.4,215.3z
	 M176.5,381.1c13.1-25.1,29.8-51.7,50.2-79.7c32.2-45,56-64.7,72-59.2c24.2,9.2,6.4,65.8-53.2,170c-14.8,25.3-33.2,51.9-54.9,80
	c-32.8,41.8-56,59.2-68.2,53c-13.1-7.1-9.4-33.9,11.1-80.4L176.5,381.1L176.5,381.1z"/>
<path class="st2" d="M902.6,211.1h-230l-56.8,98.8h44.8l36.4-52.5h108c-7.5,25.1-48.2,73.1-122,143.6
	c-68.6,68.2-111.3,124.1-128.4,168.5h81l11.6-20.8l0.4-0.6v-0.4l1.3-2.6c28.1-46.9,66.2-92.4,114-135.5
	C855.6,320.2,902.1,254.4,902.6,211.1L902.6,211.1z"/>
<path class="st2" d="M1057.3,282c3-6.4,6-10.9,8.8-14.4c2.1-3,6.6-3.9,13.5-3h119c21.4-17.8,33-35.2,34.1-51.7H924
	c-6.4,26.2-15.9,49.3-28.7,69H1057.3L1057.3,282z"/>
<path class="st2" d="M990.5,323.8l37.3-6.9l17.8-19.7H886.1c-34.7,37.3-37.5,63.2-8.1,78c3,0.4,4.1-2.1,2.8-7.7
	c-2.1-7.1-1.3-15,3-23.2c3-6.6,6.6-11.4,10.9-14.8h61.7l-61.7,70.7c-7.5,4.7-16.7,6.4-27,5.1h-70.7l-19.9,17.6h88.5
	c19.1,1.1,33.7-3.2,43.3-12.4l60.5-70.3C977.2,329.6,984.2,324.2,990.5,323.8L990.5,323.8z"/>
<path class="st2" d="M603.3,311.6l0.6-3.2c6.9-51.7-5.8-83.2-38.2-95c-38.2-14.4-81,0.6-129.1,45.7c-17.4,16.5-33.2,35.2-48.7,56.4
	c-12.4,16.3-21.7,30.2-27,41.8L348,383.8c-9.9,21.4-17.8,42.7-23.2,63.5c-17.6,64.5-8.1,105.3,28.3,122.2
	c36.9,17.1,80,3.9,128.6-39.2c29.4-27,53.6-56,73.1-87.7l13.5-22.7C586.2,385.3,597.9,349.3,603.3,311.6L603.3,311.6z M474.3,299.2
	c31.9-45.2,56-64.5,72-58.7c24,9,6.2,65.6-53.4,170c-15,25.1-33.4,51.7-55.1,79.7c-32.8,41.6-55.5,59.6-68,52.9
	c-13.1-6.9-9.4-33.9,11.1-80.4l42.9-83.4C437,354.3,453.9,327.2,474.3,299.2L474.3,299.2z"/>
<path class="st2" d="M98.9,383c-10.1,21.4-18,42.7-23.4,63.5c-17.6,64.3-7.9,105.3,28.7,122.2c36.7,16.9,79.5,3.9,128.2-39.4
	c29.4-26.8,53.8-56,73.5-87.7l13.1-22.7c17.8-34.3,29.6-70.3,35.2-107.8l0.4-3.2c7.1-51.9-5.6-83.4-37.9-95.2
	c-38.2-14.6-81.2,0.9-128.8,46.1c-17.4,15.9-33.7,34.7-49.1,56c-12.4,16.3-21.4,30.2-27,42L98.9,383L98.9,383z M224.9,298.5
	c32.2-45,56-64.7,72-59c24.2,9,6.4,65.6-53.2,170c-15,25.1-33.4,51.7-54.9,79.7c-33,41.8-55.9,59.4-68.4,53
	c-12.9-6.9-9.2-33.7,11.1-80.4l43.1-83.6C187.9,353.2,204.8,326.6,224.9,298.5L224.9,298.5z"/>
<linearGradient id="SVGID_1_" gradientUnits="userSpaceOnUse" x1="868.1084" y1="174.4557" x2="517.5026" y2="525.0616">
	<stop  offset="0.2245" style="stop-color:#C7C8CA"/>
	<stop  offset="1" style="stop-color:#626365"/>
</linearGradient>
<path class="st3" d="M662,306.7l36.4-51.9h107.2c-7.5,25.1-48,72.7-120.9,142.6c-68.2,67.5-110.6,123-127.8,167.2h80.6l11.1-20.6
	l0.9-0.6v-0.6l1.1-2.4c28.1-46.5,65.8-91.5,113.2-134.6c92-88.5,138.3-153.9,138.5-197H674.3l-56.6,98H662L662,306.7z"/>
<linearGradient id="SVGID_2_" gradientUnits="userSpaceOnUse" x1="1158.1772" y1="138.6761" x2="956.4517" y2="340.4017">
	<stop  offset="0.2245" style="stop-color:#C7C8CA"/>
	<stop  offset="1" style="stop-color:#626365"/>
</linearGradient>
<path class="st4" d="M1196.3,261.9c21.4-17.6,32.8-34.7,33.9-51.2H923.8c-6.4,26.2-15.7,48.9-28.7,68.4h161c3-6.2,6-10.7,8.8-14.1
	c2.1-3,6.6-3.9,13.5-3H1196.3L1196.3,261.9z"/>
<linearGradient id="SVGID_3_" gradientUnits="userSpaceOnUse" x1="1005.3085" y1="255.273" x2="809.5851" y2="450.9963">
	<stop  offset="0.2245" style="stop-color:#C7C8CA"/>
	<stop  offset="1" style="stop-color:#626365"/>
</linearGradient>
<path class="st5" d="M989.8,320.8l36.9-6.9l17.8-19.5H886.1c-34.5,36.9-37.1,62.6-7.9,77.4c3,0.2,3.9-2.1,2.6-7.7
	c-2.1-7.1-1.1-14.8,3-22.9c3-6.6,6.6-11.4,10.9-14.6h61.1l-61.1,70.1c-7.5,4.5-16.5,6.4-26.8,5.1h-70.3l-19.7,17.4h87.9
	c18.9,1.1,33.4-3.2,42.9-12.2l60.2-69.9C976.5,326.6,983.4,321,989.8,320.8L989.8,320.8z"/>
<linearGradient id="SVGID_4_" gradientUnits="userSpaceOnUse" x1="609.2996" y1="244.3357" x2="320.2112" y2="533.4241">
	<stop  offset="0.2245" style="stop-color:#C7C8CA"/>
	<stop  offset="1" style="stop-color:#626365"/>
</linearGradient>
<path class="st6" d="M606.1,305.6c6.9-51.4-5.8-82.7-37.9-94.3c-37.7-14.6-80.4,0.4-128.2,45.2c-17.2,16.3-33,34.9-48.4,56
	c-12.2,16.1-21.2,30-26.6,41.4l-12.9,26.4c-10.1,21.4-17.8,42.4-23.2,63.2c-17.6,63.9-8.1,104.4,28.1,121.1
	c36.7,16.9,79.3,4.1,127.8-39c29.2-26.6,53.2-55.5,72.7-87l13.1-22.5c17.8-34.3,29.6-69.9,34.9-107.4L606.1,305.6L606.1,305.6z
	 M427.3,375.7c12.9-24.9,29.8-51.7,49.9-79.5c31.7-44.8,55.5-63.9,71.4-58.3c24,9,6.2,65.2-52.9,168.9c-15,24.9-33.2,51.2-54.4,79.1
	c-32.8,41.2-55.3,59-67.7,52.5c-12.9-6.9-9.2-33.4,11.2-79.7L427.3,375.7L427.3,375.7z"/>
<linearGradient id="SVGID_5_" gradientUnits="userSpaceOnUse" x1="361.933" y1="243.5022" x2="73.0004" y2="532.4349">
	<stop  offset="0.2245" style="stop-color:#C7C8CA"/>
	<stop  offset="1" style="stop-color:#626365"/>
</linearGradient>
<path class="st7" d="M358.5,304.5c7.1-51.2-5.8-82.5-37.7-94.3c-37.9-14.4-80.6,1.1-128,45.7c-17.1,16.1-33.2,34.7-48.7,55.7
	c-12.2,16.1-21.2,30-26.6,41.6l-13.1,26.2c-9.9,21.4-17.6,42.4-23.2,63C63.9,506.5,73.6,547,110,563.7c36.2,16.9,78.9,3.9,127.1-39
	c29.2-26.8,53.6-55.5,73.1-87l12.9-22.5c17.8-34.3,29.4-70.1,34.9-107.2L358.5,304.5L358.5,304.5z M179.9,374.8
	c12.9-24.9,29.6-51.2,49.7-79.3c31.9-44.6,55.7-64.1,71.6-58.5c24,9,6.2,65.4-52.9,168.7c-14.6,25.1-33,51.5-54.2,79.3
	c-32.8,41.4-55.5,59-68,52.5c-12.9-6.9-9.2-33.7,11.1-79.7L179.9,374.8L179.9,374.8z"/>
</svg>
