<?xml version="1.0" encoding="utf-8"?>
<!-- Generator: Adobe Illustrator 19.1.1, SVG Export Plug-In . SVG Version: 6.00 Build 0)  -->
<svg version="1.1" id="Calque_1" xmlns="http://www.w3.org/2000/svg" xmlns:xlink="http://www.w3.org/1999/xlink" x="0px" y="0px"
	 viewBox="0 0 1920 400" style="enable-background:new 0 0 1920 400;" xml:space="preserve">
<style type="text/css">
	.st0{fill:#10181E;}
	.st1{fill:#1A1A1A;}
	.st2{fill:#333333;}
</style>
<polygon class="st0" points="-383.9,515.1 2.2,4.2 251.6,594 "/>
<path class="st0" d="M1950,915.2c0,0-521.2,0-1020.5,0c-13.1,0-26.3,0-39.4,0c-148.1,4.3-296.1,10.3-443.6,0c-11.1,0-22,0-32.8,0
	c-10.6,0.1-21.1,0.1-31.4,0.2c-14.8,0-29.5,0.4-44.3,1.2c-112,8.9-229,23.5-339-4.8c-4-30.1-15-58.5-21-88.5
	c104,27.5,184-57.6,259-105.7c13-7.7,25-14.6,40.2-18.4c10.1-3.2,20.5-5.6,31.1-7.4s21.4-2.7,32.4-3c19.6-1.1,39.2-1.1,58.6,0.3
	c19.4,1.5,38.7,4.5,57.7,9.6c68,19.8,133,53.3,207,50.7c12.3-0.4,24.2-2,35.8-4.3C768,730.4,822,689.1,889,671.1
	c94-25.8,196-19.8,291.2-1.6c13.1,3.1,26.3,6.5,39.5,10.1c77.2,20.9,156.5,46.8,237.5,39.6c16.2-1.4,32.5-4.2,48.8-8.6
	c13-3.4,25-7.7,37-13.8c55-27.9,96.1-67.8,150.5-92.8c10.9-5,22.3-9.4,34.5-12.9c73-22.4,151-6,227-5.2c0,74.8-5,148.7-4.8,223.5
	c-0.1,14.4-0.1,28.4-0.2,41.1C1950,888.7,1950,915.2,1950,915.2z"/>
<polygon class="st0" points="96.1,294.6 105.2,232.4 154.6,271.3 "/>
<polygon class="st0" points="230.6,219.6 312.8,154.1 328.4,258 "/>
<polygon class="st0" points="429.1,300.6 494.6,304.8 458.2,359.4 "/>
<polygon class="st0" points="430.6,188.1 439.9,167.7 452.9,185.9 "/>
<polygon class="st0" points="462.1,114.6 404.6,87.8 456.6,51.4 "/>
<polygon class="st0" points="532.6,266.1 545.4,168.7 623.3,228.5 "/>
<polygon class="st0" points="375.1,333.6 382.4,299.4 408.4,322.8 "/>
<polygon class="st0" points="136.6,182.1 107.3,178 125.5,154.7 "/>
<polygon class="st0" points="45.1,272.1 8.6,245.2 50.2,227 "/>
<polygon class="st0" points="70.6,378.6 13.4,336.6 78.4,308 "/>
<polygon class="st0" points="129.1,339.6 164.1,379.4 112.2,389.8 "/>
<polygon class="st0" points="286.6,372.6 288.4,344.5 311.8,360.1 "/>
<polygon class="st0" points="267.1,318.6 275.4,301.8 285.8,317.4 "/>
<polygon class="st0" points="621.1,332.1 600.4,395 556.3,345.7 "/>
<polygon class="st0" points="736.6,270.6 731.2,297.7 710.5,279.5 "/>
<polygon class="st0" points="808.6,212.1 777.4,215.1 790.3,186.6 "/>
<polygon class="st0" points="786.1,122.1 751.9,114.8 775.3,88.9 "/>
<polygon class="st0" points="930.1,188.1 919,158.5 950.2,163.7 "/>
<polygon class="st0" points="739.6,185.1 723.2,182.6 733.5,169.6 "/>
<polygon class="st0" points="183.1,303.6 180.9,247.8 230.3,273.8 "/>
<polygon class="st0" points="220.6,140.1 200.3,130.8 218.5,117.8 "/>
<polygon class="st0" points="292.6,134.1 298.9,103.5 322.3,124.2 "/>
<polygon class="st0" points="388.6,212.1 439.5,206.7 418.7,253.5 "/>
<polygon class="st0" points="357.1,167.1 362.1,134.2 388.1,155 "/>
<polygon class="st0" points="660.1,282.6 704.9,292.7 673.8,326.5 "/>
<polygon class="st0" points="594.1,128.1 611.7,91 635,124.7 "/>
<polygon class="st0" points="673.6,215.1 648.8,208.4 666.9,190.2 "/>
<polygon class="st0" points="831.1,302.1 842.9,265.3 868.8,293.9 "/>
<polygon class="st0" points="789.3,336.6 814,322.3 814,350.9 "/>
<polygon class="st0" points="727.6,350.1 760.8,360.9 734.9,384.3 "/>
<polygon class="st0" points="807.1,258.6 801.5,300.8 767.7,274.8 "/>
<polygon class="st0" points="915.1,258.6 882.7,223.3 929.5,212.9 "/>
<polygon class="st0" points="1041.1,272.1 1099.3,310.5 1036.9,341.7 "/>
<polygon class="st0" points="999.1,197.1 1000.8,70.1 1109.9,135.1 "/>
<polygon class="st0" points="808.6,155.1 837.3,90.5 878.9,147.7 "/>
<polygon class="st0" points="1134.1,224.1 1158.6,167.9 1195,217.3 "/>
<polygon class="st0" points="1312.6,288.6 1343.6,300.7 1317.6,321.5 "/>
<polygon class="st0" points="1231.6,321.6 1241.4,291.9 1262.2,315.3 "/>
<polygon class="st0" points="1162.6,314.1 1191.1,342.6 1152.1,353 "/>
<polygon class="st0" points="1089.1,257.1 1104.7,227 1122.9,255.6 "/>
<polygon class="st0" points="922.6,321.6 918.6,293.9 944.6,304.3 "/>
<polygon class="st0" points="987.1,270.6 982.3,210.3 1036.9,236.3 "/>
<polygon class="st1" points="963.1,333.6 1012.5,362 963.2,390.6 "/>
<polygon class="st1" points="220.6,230.1 152.9,227.2 189.3,170 "/>
<polygon class="st1" points="258.1,275.1 287.7,186 350,256.2 "/>
<polygon class="st1" points="322.6,302.1 404.2,303 362.6,373.2 "/>
<polygon class="st1" points="172.6,284.1 102.3,255.7 162,209 "/>
<polygon class="st1" points="199.6,263.1 290.4,321.7 194.3,371 "/>
<polygon class="st1" points="228.1,242.1 243.4,128.3 334.3,198.4 "/>
<polygon class="st2" points="232.6,206.1 102.2,146.4 219.1,63.3 "/>
<polygon class="st2" points="526.6,237.6 568.5,81.4 682.8,195.7 "/>
<polygon class="st2" points="400.6,251.1 446,308.9 373.2,319.3 "/>
<polygon class="st2" points="381.1,197.1 391.8,142.9 433.4,179.3 "/>
<polygon class="st2" points="318.1,287.1 375.6,313.9 323.6,350.3 "/>
<polygon class="st2" points="135.1,321.6 72.1,280 139.7,246.2 "/>
<polygon class="st2" points="7.6,297.6 -86.3,264.8 -10.9,199.9 "/>
<polygon class="st2" points="30.1,287.1 59.1,207.4 113.7,272.3 "/>
<polygon class="st2" points="12.1,380.1 20.8,291.1 93.5,343.1 "/>
<polygon class="st2" points="93.1,371.1 153.7,294.1 190.1,385 "/>
<polygon class="st2" points="57.1,342.6 255.8,452.9 61,569.8 "/>
</svg>
